<?xml version="1.0" encoding="UTF-8"?>
<svg id="Layer_1" data-name="Layer 1" xmlns="http://www.w3.org/2000/svg" viewBox="0 0 800 800">
  <defs>
    <style>
      .cls-1 {
        fill: #010101;
        stroke-width: 0px;
      }
    </style>
  </defs>
  <path class="cls-1" d="M118.99,724.93c-23.35,35.1,7.5,49.5,37.6,44.5,7.13,5.15,15.01,7.43,26.99,7.35,22.59-.15,44.65-4.93,66.1-11.6,15.24,8.19,34.42,10.46,53.29,10.23,13.27,11.67,31.61,23.42,46.17,15.77,11.45-5.99,13.65-23.5,17.89-34.11,7.43-18.8,15.54-37.3,16.37-57.61,12.13.08,23.65,4.78,35.02,8.57,4.02,1.36,17.28,7.5,24.94,5.99,7.5,4.62,15.31,8.95,23.42,12.58.76.3,1.67-.23,1.44-1.06-1.89-6.22-5-11.67-9.17-15.69,6.97-1.06,12.74-5.69,19.03-8.41,5.46,4.4,11.52.38,18.35-1.06,19.03-3.94,31.91-6.22,51.77-1.52,10.84,2.58,17.81,6.22,28.5,4.24.3,0,.53-.3.61-.61.15-.53.3-1.06.38-1.52,7.35,2.73,12.73,8.87,17.13,15.46.61.91,1.9.3,1.74-.76,0-.08,0-.15-.08-.23-1.82-11.22-13.49-33.51-27.06-29.41-5.15-2.43-11.75-3.56-17.21-4.55-6.22-1.06-9.48.91-11.67,3.49-1.97.3-3.94.61-5.91.83-3.26.23-6.14.45-9.02.45h-.08c-4.4-4.32-10.54-11.67-19.48-23.35,1.29.76-8.19-20.77-9.1-22.29,0,.08.08.3.23.68-9.4-22.74-22.06-46.24-24.26-71.18,3.71-4.47,7.28-8.94,10.16-13.95,5.84-10.08,7.96-21.68,12.58-32.29,5.91-4.62,11.52-9.78,18.12-14.48,12.36-8.87,23.73-15.08,32.82-27.74,9.93-13.8,14.1-30.55,22.51-45.1,5.15-8.95,11.6-16.22,15.69-24.71,35.55-14.33,43.59-56.25,43.13-97.86-.3-25.92-.08-56.63-11.37-80.58-8.94-19.03-25.17-33.96-36.61-51.32-3.11-4.7-5.76-9.48-8.64-14.02-11.98-56.85-51.77-112.27-98.39-142.74-43.74-28.65-107.34-27.29-135.31,21.23-27.44,5-51.17,25.55-74.52,40.02-.68.45-.61,1.52.23,1.74,18.88,5,39.42,4.09,58.9,8.57,15.54,3.56,29.03,9.48,42.15,16.9,1.29,8.04,1.74,16.15,4.55,23.8,2.65,7.28,5.76,13.72,7.73,20.62-9.55,22.21-30.09,37.6-41.31,59.2-11.37,21.98-18.65,46.09-26.76,69.51-11.29,15.01-22.74,29.34-30.78,47.38-13.34,29.87-19.33,60.8-25.09,92.79-10.31,57.08-23.12,114.01-34.87,170.94v.08c-10.54,18.27-21.45,36.39-34.87,53.21-20.09,25.17-46.16,46.77-63.98,73.61ZM456.93,708.02h-.08c-2.73-2.12-5.84-3.64-9.4-4.4-2.12-3.56-6.22-6.82-8.72-8.26-5.61-3.34-10.99-3.71-17.44-3.79-8.34-.15-17.59,1.82-25.7-.46-3.49-.99-6.9-2.88-10.16-4.93,6.59-31.99,4.62-64.74,14.02-96.57,7.73-26.38,22.89-36.84,37.14-53.75,2.88,27.9,11.9,46.92,29.11,78.15,6.44,11.75,22.21,37.14,22.97,48.67.53,7.28-6.82,18.04-9.32,25.77-8.87,0-18.8,11.9-22.44,19.56Z"/>
</svg>