<?xml version="1.0" encoding="UTF-8"?>
<svg id="Layer_1" data-name="Layer 1" xmlns="http://www.w3.org/2000/svg" viewBox="0 0 800 800">
  <defs>
    <style>
      .cls-1 {
        fill: #010101;
        stroke-width: 0px;
      }
    </style>
  </defs>
  <path class="cls-1" d="M761.46,172.4c-20.72,3.68-41.9,3.22-62.15,10.13-21.64,6.91-32.69,25.78-49.72,37.29v.46c3.68,13.35,0,29.47.92,42.36,1.84,39.13,19.34,78.73,16.57,117.4-2.76,42.82-32.23,77.35-60.77,106.82-17.5,18.42-35.45,40.98-54.79,59.85-1.84,16.12-5.52,31.31-12.89,46.04-6.9,12.43-18.41,22.1-27.16,33.15-6.45,53.41-3.22,100.37,59.39,116.02,10.59,2.3,19.8.46,25.78,7.37,10.59,1.38,18.42,10.59,22.56,22.56.46,2.3-2.3,3.68-4.14,2.3-5.99-5.52-11.05-8.29-17.96-11.97h-.92c-6.44,4.14-12.43,3.22-21.64,2.3-6.91-.46-13.81-3.68-20.72-5.52-18.88-4.14-27.62,4.14-45.12,7.37-5.99.92-15.19,5.06-18.42-.92-8.75,1.84-17.95,3.68-25.78,7.83-1.84.92-3.22,0-3.68-1.84-.46-13.81,21.64-22.1,35.45-19.34,6.45-15.19,15.66-27.17,8.29-45.12-3.22-6.91-10.59-16.58-14.73-23.02-7.83-11.97-17.95-24.86-20.26-39.6-2.3-13.35,4.61-28.55,7.37-42.36-16.11,5.99-34.99,9.67-52.03,7.83-8.75-.92-15.65-4.6-22.1-9.67-1.84,10.13-5.52,19.8-11.05,28.08.46,0,0,.46,0,.46,6.44,21.64,8.75,43.28,22.1,63.08,10.13,15.66,23.48,25.32,41.44,30.39,6.45,1.38,15.66,1.38,20.72,6.91,3.68,4.6,4.61,9.21-.92,12.89-10.13,6.44-35.45-8.75-47.42-14.73h-.46c-14.27-3.22-27.62,5.99-41.44,2.3-.92,0-1.38-.46-1.84-1.38-6.45,3.68-11.97,9.21-19.8,8.29-1.84,0-3.22-1.84-2.3-3.68,8.29-11.51,17.03-18.88,30.39-23.02,1.84-11.51-.46-25.78-3.68-35.45-7.37-22.1-19.8-48.8-33.61-70.9-18.41,13.35-36.83,26.7-60.31,29.92-57.55,48.8-115.1,87.94-186.93,121.09-32.23,15.19-49.26,25.32-47.88-11.05-11.51,2.3-23.48,1.38-35.45-2.76-1.38-.46-2.3-1.84-1.38-3.22,7.83-13.81,17.5-22.1,30.39-30.85,30.85-21.18,51.57-41.44,75.51-70.9,15.19-18.41,30.85-35.45,49.72-50.64,6.9-5.99,30.85-28.08,46.5-34.99,0-24.86,1.84-48.8,16.58-70.44,24.86-36.37,63.08-69.52,91.16-104.51,45.58-56.63,103.13-122.47,173.11-152.4,3.22-18.88,6.45-38.21,9.67-57.09,1.84-11.05,3.22-22.1,8.75-31.77,11.05-20.26,32.69-30.85,53.87-37.29,37.75-11.97,90.24-14.73,105.89,28.08,38.67,6.91,100.83,23.02,92.54,42.36-1.84,5.07-11.05,4.61-15.19,5.52Z"/>
</svg>