<?xml version="1.0" encoding="UTF-8"?>
<svg id="Layer_1" data-name="Layer 1" xmlns="http://www.w3.org/2000/svg" viewBox="0 0 800 800">
  <defs>
    <style>
      .cls-1 {
        fill: #010101;
        stroke-width: 0px;
      }
    </style>
  </defs>
  <path class="cls-1" d="M146.82,635.28c-16.19,11.49-32.9,20.89-44.91,15.67-11.49-4.7-5.74-13.06-.52-20.37,7.31-11.49,30.81-23.5,42.3-32.38,18.8-14.1,36.03-29.24,51.18-47,18.8-21.93,32.9-52.22,55.87-70.49,14.62-60.57,55.87-106.01,96.61-152.48,24.54-27.68,50.13-54.83,77.81-79.37,12.01-10.44,36.03-22.98,43.34-37.6,14.1-29.25,6.79-65.8-1.05-96.08-33.42-18.28-69.98-29.24-106.53-40.21-1.57-.52-2.61-2.61-1.05-4.18,15.14-14.62,33.94-17.76,52.74-24.02,19.84-6.79,37.07-9.4,55.35-9.92,30.29-33.94,91.91-36.03,130.03-15.14,45.43,25.06,53.79,74.67,55.35,123.24,4.18,18.8,9.4,37.6,15.66,56.4,10.44,31.33,29.77,64.75,30.29,98.69.52,16.19-3.66,33.42-10.97,50.13-1.04,2.61-2.09,5.22-2.61,7.83-1.05,2.61-2.09,5.22-3.13,8.35-12.53,34.99-27.16,69.45-42.3,103.39-22.45,51.18-64.75,87.21-119.06,99.74-3.13,18.28-10.97,38.12-20.89,53.78,4.7,18.8,14.62,36.03,23.5,53.26,10.96,22.45,25.06,35.51,45.43,50.13,13.05,9.4,20.89,15.14,38.64,17.23,5.74.52,11.49-1.56,16.71,0,2.61.52,4.7,1.57,6.27,2.09,15.14-8.36,26.11,1.04,31.33,17.23,1.05,2.61-2.61,4.18-4.18,2.61-5.22-2.09-9.92-4.18-14.62-6.27-1.56,0-3.13,0-4.7-.52-.52.52-.52,0-.52,0-8.88,8.88-17.23,5.22-27.68,1.56-2.61,5.22-8.35,6.79-17.23,6.27-16.19-1.04-28.2-7.83-38.12-18.28,0-.52-.52,0-.52,0-13.58-1.57-24.54.52-38.12,2.61-1.05,0-13.06,3.13-15.67,2.61-4.7-1.04-7.31-1.04-9.92-4.7-1.57-2.09-2.09-4.18-2.61-5.75-8.88-.52-16.71-.52-25.59-1.56-1.04-.52-1.56-1.57-1.56-2.61v-1.05c3.66-13.58,21.93-11.49,32.9-5.22.52-.52,1.05-1.05,1.56-1.05,3.13-1.57,8.36.52,12.01-.52,9.92,2.61,13.58-1.56,12.01-11.49,3.13-6.27,2.61-11.49-1.56-16.19-5.22-15.67-20.89-30.29-33.42-41.26-10.97-9.92-16.71-19.32-17.23-31.33v-1.57c-5.74-20.89,1.57-39.16,6.79-60.57-11.49,7.83-32.38,12.53-39.69,15.14-2.09.52-3.66-1.56-3.13-3.13,1.05-3.66,1.57-6.79,1.57-9.92-1.05,1.57-1.57,2.61-2.61,4.18-9.4,15.67-8.88,31.33-8.35,48.56,0,9.92,0,18.8-3.66,26.63,12.01,30.29,21.93,62.66,41.25,89.82,1.05,1.05,1.57,2.61,2.61,3.66,22.45,29.77,34.46,20.37,63.18,19.84,5.22,0,11.49-.52,16.71,2.61.52,0,1.05,0,1.57.52,16.71,2.09,27.15,12.53,29.77,30.81.52,2.09-3.13,3.13-4.18,1.56-7.31-7.83-15.67-13.57-26.11-15.14-10.97,4.18-33.42,2.61-48.04.52-8.36,16.71-25.07,4.7-37.6-4.7-15.14,0-37.08,3.13-49.09-7.83-9.92-1.05-19.84,5.74-28.72,8.88-2.09.52-3.66-1.05-3.13-3.13,5.74-20.89,16.71-25.06,33.94-18.28.52,0,1.05,0,2.09.52,1.05,0,3.13-.52,6.27-4.18,14.1-15.67,9.92-15.15,3.13-32.9-4.7-13.58-16.19-30.81-22.98-43.87-8.35-16.19-24.54-33.94-27.68-52.74-3.65-20.89,6.27-37.07-3.13-55.35-44.91,45.43-111.75,71.02-168.67,96.61-17.23,7.83-34.99,13.05-51.17,21.93-10.44,5.22-37.08,28.2-51.18,26.11-13.57-1.57-10.96,3.13-16.71-7.31-.52-.52-.52-1.56,0-2.61,18.28-27.16,49.61-41.77,66.32-70.49Z"/>
</svg>